<svg width="40" height="40" viewBox="0 0 40 40" fill="none" xmlns="http://www.w3.org/2000/svg">
<path fill-rule="evenodd" clip-rule="evenodd" d="M6.59152 8.43512C5 10.6257 5 13.7504 5 20C5 26.2496 5 29.3743 6.59152 31.5649C7.10552 32.2723 7.72767 32.8945 8.43512 33.4085C10.6257 35 13.7504 35 20 35C26.2496 35 29.3743 35 31.5649 33.4085C32.2723 32.8945 32.8945 32.2723 33.4085 31.5649C35 29.3743 35 26.2496 35 20C35 13.7504 35 10.6257 33.4085 8.43512C32.8945 7.72767 32.2723 7.10552 31.5649 6.59152C29.3743 5 26.2496 5 20 5C13.7504 5 10.6257 5 8.43512 6.59152C7.72767 7.10552 7.10552 7.72767 6.59152 8.43512ZM17.1121 13.2145C17.8061 12.6571 18.5355 12.2332 19.4242 12.1199C19.6153 12.0955 19.8077 12.0833 20 12.0833C20.1923 12.0833 20.3847 12.0955 20.5758 12.1199C21.4645 12.2332 22.1939 12.6571 22.8879 13.2145C23.5496 13.7459 24.2883 14.4912 25.1739 15.3848L27.5545 17.7867C28.0405 18.2771 28.0369 19.0685 27.5466 19.5545C27.0563 20.0405 26.2648 20.0369 25.7788 19.5466L23.4491 17.196C22.4995 16.2378 21.8602 15.5955 21.3225 15.1637C21.2979 15.1439 21.2737 15.1248 21.25 15.1063V26.6667C21.25 27.357 20.6904 27.9167 20 27.9167C19.3096 27.9167 18.75 27.357 18.75 26.6667V15.1063C18.7263 15.1248 18.7021 15.1439 18.6775 15.1637C18.1398 15.5955 17.5006 16.2378 16.5509 17.196L14.2212 19.5466C13.7352 20.0369 12.9437 20.0405 12.4534 19.5545C11.9631 19.0685 11.9595 18.2771 12.4455 17.7867L14.8261 15.3848C15.7117 14.4912 16.4504 13.7459 17.1121 13.2145Z" fill="#1E90FF"/>
</svg>
